<svg width="32px" height="32px" viewBox="0 0 32 32" version="1.1" xmlns="http://www.w3.org/2000/svg" xmlns:xlink="http://www.w3.org/1999/xlink">
    <title>Que Toca</title>
    <g id="Artboard" stroke="none" stroke-width="1" fill="none" fill-rule="evenodd">
        <g id="favicon" transform="translate(2.999904, 3.000234)" fill="#3B82F6" fill-rule="nonzero">
            <path d="M25.5144621,3.84098238 L21.3604511,0.322177587 C20.7896645,-0.161327757 19.934992,-0.0905723408 19.4514867,0.480214231 C19.4494585,0.482608509 19.4474387,0.485009827 19.4454272,0.487418143 C18.9615763,1.06672855 19.0358865,1.92793248 19.6118202,2.41579786 L23.7658312,5.93460266 C24.3366178,6.418108 25.1912903,6.34735259 25.6747956,5.77656602 C25.6768238,5.77417174 25.6788436,5.77177042 25.6808551,5.7693621 C26.164706,5.1900517 26.0903958,4.32884777 25.5144621,3.84098238 Z M6.54758026,0.487418143 C6.0729812,-0.0852544393 5.22399979,-0.164758739 4.65132721,0.309840319 C4.64804465,0.312560716 4.64477504,0.315296686 4.64151847,0.318048134 L0.486449775,3.82863047 C-0.0898931312,4.3155777 -0.164741,5.17658325 0.318930036,5.75567831 C0.798555577,6.32992973 1.65289166,6.40663917 2.22714308,5.92701363 C2.22948048,5.92506138 2.2318113,5.92310126 2.23413548,5.9211333 L6.37753619,2.4127823 C6.95234236,1.92607538 7.02818434,1.06733665 6.54758026,0.487418143 Z M12.6610106,7.84245669 C12.0995326,7.84245669 11.6443648,8.29762454 11.6443648,8.85910254 L11.6443648,16.0527323 L11.6443648,16.0527323 L17.2421866,19.4432684 C17.7060585,19.7242303 18.3098656,19.5759524 18.5908274,19.1120805 C18.5910334,19.1117404 18.5912392,19.1114002 18.5914447,19.1110599 C18.8709671,18.6482971 18.7224214,18.046556 18.2596585,17.7670336 C18.2584455,17.7663009 18.2572309,17.7655708 18.2560147,17.7648434 L13.6776565,15.0264479 L13.6776565,15.0264479 L13.6776565,8.85910254 C13.6776565,8.29762454 13.2224886,7.84245669 12.6610106,7.84245669 Z M12.9998926,2.36893963 C6.26291942,2.36893963 0.800142403,7.88350807 0.800142403,14.684353 C0.800142403,21.4851979 6.24936414,26.9997664 12.9998926,26.9997664 C19.7376284,26.9997664 25.1996425,21.4859679 25.1996425,14.684353 C25.1996425,7.88273809 19.7376284,2.36893963 12.9998926,2.36893963 Z M12.9998926,24.2630079 C7.75399999,24.2630079 3.51119799,19.9799808 3.51119799,14.684353 C3.51119799,9.38872525 7.75399999,5.10569816 12.9998926,5.10569816 C18.2457851,5.10569816 22.4885871,9.38872525 22.4885871,14.684353 C22.4885871,19.9799808 18.2457851,24.2630079 12.9998926,24.2630079 Z" id="Shape"></path>
        </g>
    </g>
</svg>