<?xml version="1.0" encoding="UTF-8"?>
<svg width="32px" height="32px" viewBox="0 0 32 32" version="1.1" xmlns="http://www.w3.org/2000/svg" xmlns:xlink="http://www.w3.org/1999/xlink">
    <title>Favicon</title>
    <g id="Favicon" stroke="none" stroke-width="1" fill="none" fill-rule="evenodd">
        <g id="favicon" transform="translate(2.000000, 0.000000)" fill="#3B82F6" fill-rule="nonzero">
            <polygon id="Path" points="12.2739726 11.1780822 14.6849315 11.1780822 14.6849315 22.3561644 12.2739726 22.3561644"></polygon>
            <polygon id="Path" points="9.64383562 0 17.0958904 0 17.0958904 2.4109589 9.64383562 2.4109589"></polygon>
            <path d="M28.2739726,8.66190083 L26.5192709,6.92469932 L23.7389337,9.69682939 C19.0112012,4.25319857 10.8269255,3.47612291 5.15366698,7.9322067 C-0.519591565,12.3882905 -1.67792446,20.5035557 2.52326609,26.3607611 C6.72445664,32.2179664 14.801226,33.7482297 20.8644021,29.8357602 C26.9275783,25.9232908 28.8355259,17.9500512 25.1970661,11.7297248 L28.2739726,8.66190083 Z M13.4455076,29.6068836 C7.30335624,29.6068836 2.32415879,24.642384 2.32415879,18.5183633 C2.32415879,12.3943427 7.30335624,7.42984302 13.4455076,7.42984302 C19.5876589,7.42984302 24.5668563,12.3943427 24.5668563,18.5183633 C24.5668563,24.642384 19.5876589,29.6068836 13.4455076,29.6068836 L13.4455076,29.6068836 Z" id="Shape"></path>
        </g>
    </g>
</svg>