<?xml version="1.0" encoding="UTF-8"?>
<svg width="28px" height="28px" viewBox="0 0 28 28" version="1.1" xmlns="http://www.w3.org/2000/svg" xmlns:xlink="http://www.w3.org/1999/xlink">
    <title>safari-pinned-tab</title>
    <g id="safari-pinned-tab" stroke="none" stroke-width="1" fill="none" fill-rule="evenodd">
        <g id="favicon" transform="translate(2.000000, 0.000000)" fill="#3B82F6" fill-rule="nonzero">
            <polygon id="Path" points="10.5 10.5 12.8333333 10.5 12.8333333 19.8333333 10.5 19.8333333"></polygon>
            <polygon id="Path" points="8.16666667 0 15.1666667 0 15.1666667 2.33333333 8.16666667 2.33333333"></polygon>
            <path d="M24.5,7.80052731 L22.9795136,6.29695351 L20.5702921,8.69627341 C16.4736111,3.98472979 9.38176177,3.31215922 4.4657623,7.16896617 C-0.450237167,11.0257731 -1.45395732,18.0496561 2.18646385,23.1191546 C5.82688503,28.1886532 12.8255778,29.5131189 18.0794492,26.1268182 C23.3333206,22.7405176 24.9865979,15.8395599 21.8337949,10.4557747 L24.5,7.80052731 Z M11.6508189,25.9287221 C6.32851387,25.9287221 2.01393314,21.6318737 2.01393314,16.3314425 C2.01393314,11.0310113 6.32851387,6.73416292 11.6508189,6.73416292 C16.973124,6.73416292 21.2877047,11.0310113 21.2877047,16.3314425 C21.2877047,21.6318737 16.973124,25.9287221 11.6508189,25.9287221 L11.6508189,25.9287221 Z" id="Shape"></path>
        </g>
    </g>
</svg>