<?xml version="1.0" encoding="UTF-8"?>
<svg width="28px" height="28px" viewBox="0 0 28 28" version="1.1" xmlns="http://www.w3.org/2000/svg" xmlns:xlink="http://www.w3.org/1999/xlink">
    <title>safari-pinned-tab</title>
    <g id="Page-1" stroke="none" stroke-width="1" fill="none" fill-rule="evenodd">
        <g id="safari-pinned-tab" transform="translate(-0.000000, 0.000000)" fill="#413C3C" fill-rule="nonzero">
            <path d="M27.147457,4.28079878 L22.7755233,0.668563549 C22.1713887,0.169407746 21.2787,0.246424433 20.7689855,0.841677518 C20.270716,1.42356499 20.3385018,2.29920523 20.9203893,2.79747473 C20.9265726,2.80276954 20.9328025,2.80800982 20.9390781,2.81319495 L25.3110118,6.42543019 C25.9151464,6.92458599 26.8078351,6.8475693 27.3175496,6.25231622 C27.8158191,5.67042874 27.7480333,4.79478851 27.1661458,4.296519 C27.1599625,4.29122419 27.1537326,4.28598392 27.147457,4.28079878 Z M13.6438631,8.37592182 C14.2335379,8.37592182 14.7115638,8.85394769 14.7115638,9.44362248 L14.7115638,9.44362248 L14.7115638,15.7349511 L19.5301423,18.5460769 C19.5376357,18.5504485 19.5450711,18.5549186 19.5524466,18.5594861 C20.016164,18.8466544 20.1592853,19.4553676 19.872117,19.9190849 C19.5754953,20.3980676 18.9503266,20.5519563 18.4652609,20.2653902 L18.4652609,20.2653902 L12.5761625,16.786241 L12.5761625,9.44362248 C12.5761625,8.85394769 13.0541883,8.37592182 13.6438631,8.37592182 Z M5.22642407,0.664239199 C5.82877035,0.167850237 6.71803299,0.246863425 7.22342318,0.841677518 C7.22760676,0.846601345 7.2317559,0.851554332 7.23587029,0.856536117 C7.72387285,1.44741853 7.64047224,2.32202761 7.04958982,2.81003016 L7.04958982,2.81003016 L2.68869929,6.41163624 C2.08442683,6.91069746 1.19172157,6.83358711 0.681977139,6.23829902 L0.681977139,6.23829902 L0.66515414,6.21827326 C0.178578775,5.62783534 0.262776007,4.75474357 0.853213921,4.26816821 L0.853213921,4.26816821 Z M13.9997634,2.76904234 C6.92446699,2.76904234 1.18735545,8.41797342 1.18735545,15.3845212 C1.18735545,22.3510689 6.91023098,28 13.9997634,28 C21.0758608,28 26.8121711,22.3518577 26.8121711,15.3845212 C26.8121711,8.41718467 21.0758608,2.76904234 13.9997634,2.76904234 Z M13.9997634,25.1965603 C8.49042796,25.1965603 4.03455721,20.8091771 4.03455721,15.3845212 C4.03455721,9.95986527 8.49042796,5.57248208 13.9997634,5.57248208 C19.5090988,5.57248208 23.9649695,9.95986527 23.9649695,15.3845212 C23.9649695,20.8091771 19.5090988,25.1965603 13.9997634,25.1965603 Z" id="Shape"></path>
        </g>
    </g>
</svg>